# xmcd CD database file
#
# Track frame offsets:
#	180
#	2228
#	17637
#	32479
#	60821
#	75433
#	97825
#	136522
#	156347
#	172257
#	202982
#	234440
#
# Disc length: 3386 seconds
#
# Revision: 0
# Processed by: cddbd v1.5.1PL0 Copyright (c) Steve Scherf et al.
# Submitted via: NeoAudio 9.9.9
#
DISCID=7e0d380c
DTITLE=Queen Bee and the Blue Hornet Band - Live at the Acoustic Brew
DYEAR=1996
DGENRE=Blues
TTITLE0=Intro By Tom Poole
TTITLE1=Running Shoes
TTITLE2=See See Baby
TTITLE3=A Man Down In Texas
TTITLE4=Fortune Teller
TTITLE5=Let Me Tell  You What love Is
TTITLE6=Kansas City
TTITLE7=Big Boss Man
TTITLE8=Flip Flop and Fly
TTITLE9=I'd Rather Go Blind
TTITLE10=Love Me With A Feeling
TTITLE11=Sea Cruise
EXTD=YEAR: 1996
EXTT0=
EXTT1=
EXTT2=
EXTT3=
EXTT4=
EXTT5=
EXTT6=
EXTT7=
EXTT8=
EXTT9=
EXTT10=
EXTT11=
PLAYORDER=
